<svg width="75" height="56" viewBox="0 0 75 56" fill="none" xmlns="http://www.w3.org/2000/svg">
<path d="M37.8904 3.9711C38.9598 2.88249 40.7092 2.86687 41.7978 3.93622L50.9962 12.9719C52.0848 14.0412 52.1005 15.7906 51.0311 16.8792L27.1511 41.1894L15.9815 30.2175C14.8929 29.1482 14.8773 27.3988 15.9467 26.3102L37.8904 3.9711Z" fill="#9CE1FF"/>
<path d="M51.2184 39.0316C52.307 40.1009 52.3226 41.8503 51.2532 42.9389L42.2176 52.1373C41.1482 53.2259 39.3989 53.2416 38.3102 52.1722L15.9711 30.2284C14.8825 29.1591 14.8669 27.4097 15.9362 26.3211L26.9081 15.1516L51.2184 39.0316Z" fill="#CDF0FF"/>
<path d="M60.8447 27.8486C60.8447 29.5055 59.5016 30.8486 57.8447 30.8486C56.1879 30.8486 54.8447 29.5055 54.8447 27.8486C54.8447 26.1918 56.1879 24.8486 57.8447 24.8486C59.5016 24.8486 60.8447 26.1918 60.8447 27.8486Z" fill="#FFD80C"/>
<path fill-rule="evenodd" clip-rule="evenodd" d="M40.0481 28.0595L27.1506 41.1893L15.9811 30.2174C14.8925 29.1481 14.8769 27.3987 15.9462 26.3101L26.9075 15.1514L40.0481 28.0595Z" fill="#34C2FF"/>
</svg>
