<svg width="170" height="200" viewBox="0 0 170 200" fill="none" xmlns="http://www.w3.org/2000/svg">
<g filter="url(#filter0_d_760_18787)">
<mask id="path-1-outside-1_760_18787" maskUnits="userSpaceOnUse" x="18.3926" y="48.0342" width="134" height="142" fill="black">
<rect fill="white" x="18.3926" y="48.0342" width="134" height="142"/>
<path fill-rule="evenodd" clip-rule="evenodd" d="M136.627 70.0496L126.972 76.1602L130.204 65.0826C132.11 58.9598 135.371 57.6018 139.096 60.4825C142.889 63.4159 141.34 66.9863 136.627 70.0496ZM83.1936 179.059C113.459 179.059 137.995 154.524 137.995 124.258C137.995 93.9925 113.459 69.4572 83.1936 69.4572C52.9278 69.4572 28.3926 93.9925 28.3926 124.258C28.3926 154.524 52.9278 179.059 83.1936 179.059ZM128.116 81.6675L136.443 82.1192C140.542 82.2916 142.974 80.8239 141.959 77.4746C140.963 74.1854 138.45 73.6135 134.726 76.4479L128.116 81.6675Z"/>
</mask>
<path fill-rule="evenodd" clip-rule="evenodd" d="M136.627 70.0496L126.972 76.1602L130.204 65.0826C132.11 58.9598 135.371 57.6018 139.096 60.4825C142.889 63.4159 141.34 66.9863 136.627 70.0496ZM83.1936 179.059C113.459 179.059 137.995 154.524 137.995 124.258C137.995 93.9925 113.459 69.4572 83.1936 69.4572C52.9278 69.4572 28.3926 93.9925 28.3926 124.258C28.3926 154.524 52.9278 179.059 83.1936 179.059ZM128.116 81.6675L136.443 82.1192C140.542 82.2916 142.974 80.8239 141.959 77.4746C140.963 74.1854 138.45 73.6135 134.726 76.4479L128.116 81.6675Z" fill="white"/>
<path d="M126.972 76.1602L117.372 73.3589C116.207 77.3515 117.635 81.6485 120.958 84.1498C124.281 86.651 128.805 86.8344 132.319 84.6102L126.972 76.1602ZM136.627 70.0496L141.975 78.4996C142.009 78.478 142.043 78.4562 142.077 78.4341L136.627 70.0496ZM130.204 65.0826L120.656 62.1101C120.638 62.167 120.621 62.2241 120.605 62.2813L130.204 65.0826ZM139.096 60.4825L145.213 52.572L145.213 52.572L139.096 60.4825ZM136.443 82.1192L135.902 92.1045C135.942 92.1067 135.983 92.1086 136.023 92.1103L136.443 82.1192ZM128.116 81.6675L121.919 73.8196C118.655 76.3972 117.327 80.7261 118.584 84.6906C119.842 88.6552 123.422 91.4275 127.575 91.6528L128.116 81.6675ZM141.959 77.4746L151.53 74.5758V74.5758L141.959 77.4746ZM134.726 76.4479L128.669 68.4904C128.622 68.5265 128.575 68.5631 128.528 68.6L134.726 76.4479ZM132.319 84.6102L141.975 78.4996L131.279 61.5997L121.624 67.7103L132.319 84.6102ZM120.605 62.2813L117.372 73.3589L136.571 78.9616L139.804 67.8839L120.605 62.2813ZM145.213 52.572C141.785 49.9209 135.892 47.3253 129.565 50.4274C124.253 53.032 121.848 58.2828 120.656 62.1101L139.752 68.0551C140.036 67.1419 140.237 66.8583 140.182 66.9411C140.123 67.0295 139.598 67.7832 138.37 68.385C137.003 69.0553 135.525 69.1611 134.33 68.9076C133.302 68.6898 132.848 68.2925 132.978 68.393L145.213 52.572ZM142.077 78.4341C145.057 76.4969 149.068 73.1955 150.614 68.1418C151.48 65.3099 151.478 62.1553 150.272 59.1053C149.123 56.2026 147.158 54.0763 145.213 52.572L132.978 68.393C132.93 68.3554 132.194 67.7754 131.674 66.4629C131.097 65.0031 131.124 63.4827 131.488 62.2929C131.801 61.2714 132.251 60.8226 132.185 60.8933C132.142 60.9406 131.857 61.2232 131.177 61.6652L142.077 78.4341ZM127.995 124.258C127.995 149.001 107.936 169.059 83.1936 169.059V189.059C118.982 189.059 147.995 160.047 147.995 124.258H127.995ZM83.1936 79.4572C107.936 79.4572 127.995 99.5153 127.995 124.258H147.995C147.995 88.4696 118.982 59.4572 83.1936 59.4572V79.4572ZM38.3926 124.258C38.3926 99.5153 58.4507 79.4572 83.1936 79.4572V59.4572C47.405 59.4572 18.3926 88.4696 18.3926 124.258H38.3926ZM83.1936 169.059C58.4507 169.059 38.3926 149.001 38.3926 124.258H18.3926C18.3926 160.047 47.405 189.059 83.1936 189.059V169.059ZM136.985 72.1338L128.658 71.6821L127.575 91.6528L135.902 92.1045L136.985 72.1338ZM132.389 80.3734C132.277 80.0046 131.999 78.8388 132.393 77.2441C132.824 75.4955 133.852 74.0905 135.023 73.1906C136.053 72.398 136.923 72.1925 137.121 72.1509C137.35 72.1028 137.295 72.1461 136.864 72.128L136.023 92.1103C138.816 92.2278 143.394 91.9833 147.215 89.0445C149.379 87.3805 151.081 84.9914 151.811 82.031C152.503 79.2245 152.149 76.6192 151.53 74.5758L132.389 80.3734ZM140.782 84.4054C141.198 84.0884 141.21 84.1574 140.83 84.3014C140.443 84.4477 139.322 84.7913 137.747 84.5331C136.019 84.2496 134.56 83.3711 133.572 82.2967C132.7 81.3488 132.433 80.5204 132.389 80.3734L151.53 74.5758C150.458 71.037 147.486 65.8632 140.984 64.7967C135.597 63.9132 131.17 66.5874 128.669 68.4904L140.782 84.4054ZM134.314 89.5154L140.923 84.2958L128.528 68.6L121.919 73.8196L134.314 89.5154Z" fill="white" mask="url(#path-1-outside-1_760_18787)"/>
</g>
<circle cx="82.801" cy="125.116" r="51.301" fill="#F6F8FB" stroke="#AAB1B4" stroke-width="7" stroke-linecap="round"/>
<circle cx="67.1705" cy="123.426" r="4.21546" fill="#AAB1B4"/>
<circle cx="98.3629" cy="123.426" r="4.21546" fill="#AAB1B4"/>
<path d="M75.2129 138.523C77.4611 136.556 83.6438 133.802 90.3886 138.523" stroke="#AAB1B4" stroke-width="4" stroke-linecap="round"/>
<path d="M136.234 70.9079L126.579 77.0185L129.812 65.9409C131.718 59.818 134.978 58.46 138.703 61.3408C142.496 64.2742 140.947 67.8446 136.234 70.9079Z" fill="#AAB1B4"/>
<path d="M136.051 82.9772L127.724 82.5255L134.333 77.306C138.057 74.4715 140.57 75.0435 141.567 78.3326C142.581 81.682 140.149 83.1497 136.051 82.9772Z" fill="#AAB1B4"/>
<g filter="url(#filter1_d_760_18787)">
<circle cx="59.2258" cy="26.2258" r="10.2258" fill="#AAB1B4" stroke="white" stroke-width="10" stroke-linecap="round" stroke-linejoin="round"/>
<circle cx="85.9358" cy="26.2258" r="10.2258" fill="#AAB1B4" stroke="white" stroke-width="10" stroke-linecap="round" stroke-linejoin="round"/>
<circle cx="111.484" cy="26.2258" r="10.2258" fill="#AAB1B4" stroke="white" stroke-width="10" stroke-linecap="round" stroke-linejoin="round"/>
</g>
<defs>
<filter id="filter0_d_760_18787" x="14.3926" y="45.0146" width="145.797" height="152.045" filterUnits="userSpaceOnUse" color-interpolation-filters="sRGB">
<feFlood flood-opacity="0" result="BackgroundImageFix"/>
<feColorMatrix in="SourceAlpha" type="matrix" values="0 0 0 0 0 0 0 0 0 0 0 0 0 0 0 0 0 0 127 0" result="hardAlpha"/>
<feOffset dx="2" dy="2"/>
<feGaussianBlur stdDeviation="3"/>
<feColorMatrix type="matrix" values="0 0 0 0 0 0 0 0 0 0 0 0 0 0 0 0 0 0 0.1 0"/>
<feBlend mode="normal" in2="BackgroundImageFix" result="effect1_dropShadow_760_18787"/>
<feBlend mode="normal" in="SourceGraphic" in2="effect1_dropShadow_760_18787" result="shape"/>
</filter>
<filter id="filter1_d_760_18787" x="40" y="7" width="94.709" height="42.4512" filterUnits="userSpaceOnUse" color-interpolation-filters="sRGB">
<feFlood flood-opacity="0" result="BackgroundImageFix"/>
<feColorMatrix in="SourceAlpha" type="matrix" values="0 0 0 0 0 0 0 0 0 0 0 0 0 0 0 0 0 0 127 0" result="hardAlpha"/>
<feOffset dx="2" dy="2"/>
<feGaussianBlur stdDeviation="3"/>
<feColorMatrix type="matrix" values="0 0 0 0 0 0 0 0 0 0 0 0 0 0 0 0 0 0 0.1 0"/>
<feBlend mode="normal" in2="BackgroundImageFix" result="effect1_dropShadow_760_18787"/>
<feBlend mode="normal" in="SourceGraphic" in2="effect1_dropShadow_760_18787" result="shape"/>
</filter>
</defs>
</svg>
