<svg width="375" height="472" viewBox="0 0 375 472" fill="none" xmlns="http://www.w3.org/2000/svg">
<rect width="375" height="472" fill="#FAFAFB"/>
<path d="M310.155 411C313.462 414.859 318.78 423.663 313.59 428.005C307.102 433.432 299.853 419.322 310.155 411Z" fill="#EBEDF0"/>
<path d="M41.1552 273C44.4625 276.859 49.7797 285.663 44.5897 290.005C38.1022 295.432 30.853 281.322 41.1552 273Z" fill="#EBEDF0"/>
<path d="M102.155 341C105.462 344.859 110.78 353.663 105.59 358.005C99.1022 363.432 91.853 349.322 102.155 341Z" fill="#EBEDF0"/>
<path d="M298.155 293C301.462 296.859 306.78 305.663 301.59 310.005C295.102 315.432 287.853 301.322 298.155 293Z" fill="#EBEDF0"/>
<path d="M60.1552 411C63.4625 414.859 68.7797 423.663 63.5897 428.005C57.1022 433.432 49.853 419.322 60.1552 411Z" fill="#EBEDF0"/>
</svg>
