<svg width="375" height="540" viewBox="0 0 375 540" fill="none" xmlns="http://www.w3.org/2000/svg">
<rect width="375" height="540" fill="url(#paint0_linear_937_13441)"/>
<path d="M0 483.512H115V539.998H0V483.512Z" fill="#CDF0FF"/>
<path d="M63.488 512.395V515.563H50.792V513.043L57.272 506.923C57.96 506.267 58.424 505.707 58.664 505.243C58.904 504.763 59.024 504.291 59.024 503.827C59.024 503.155 58.792 502.643 58.328 502.291C57.88 501.923 57.216 501.739 56.336 501.739C55.6 501.739 54.936 501.883 54.344 502.171C53.752 502.443 53.256 502.859 52.856 503.419L50.024 501.595C50.68 500.619 51.584 499.859 52.736 499.315C53.888 498.755 55.208 498.475 56.696 498.475C57.944 498.475 59.032 498.683 59.96 499.099C60.904 499.499 61.632 500.075 62.144 500.827C62.672 501.563 62.936 502.435 62.936 503.443C62.936 504.355 62.744 505.211 62.36 506.011C61.976 506.811 61.232 507.723 60.128 508.747L56.264 512.395H63.488Z" fill="white"/>
<path d="M115 473.117C115 469.251 118.134 466.117 122 466.117H253C256.866 466.117 260 469.251 260 473.117V540H115V473.117Z" fill="#9CE1FF"/>
<g filter="url(#filter0_d_937_13441)">
<path d="M190.416 487.67V504.47H186.528V490.79H183.168V487.67H190.416Z" fill="white"/>
</g>
<rect x="260" y="483.512" width="115" height="56.4861" fill="#CDF0FF"/>
<path d="M318.784 505.603C320.256 505.843 321.384 506.395 322.168 507.259C322.952 508.107 323.344 509.163 323.344 510.427C323.344 511.403 323.088 512.307 322.576 513.139C322.064 513.955 321.28 514.611 320.224 515.107C319.184 515.603 317.904 515.851 316.384 515.851C315.2 515.851 314.032 515.699 312.88 515.395C311.744 515.075 310.776 514.627 309.976 514.051L311.488 511.075C312.128 511.555 312.864 511.931 313.696 512.203C314.544 512.459 315.408 512.587 316.288 512.587C317.264 512.587 318.032 512.403 318.592 512.035C319.152 511.651 319.432 511.115 319.432 510.427C319.432 509.051 318.384 508.363 316.288 508.363H314.512V505.795L317.968 501.883H310.816V498.763H322.576V501.283L318.784 505.603Z" fill="white"/>
<rect width="8.05196" height="12.0264" transform="matrix(-0.499339 0.866406 -0.862631 -0.505833 332.395 278.839)" fill="#FFEEC3"/>
<rect width="8.0343" height="12.0529" transform="matrix(0.709122 0.705086 -0.698931 0.715189 41.4238 320.162)" fill="#CDF0FF"/>
<rect width="8.0621" height="12.0111" transform="matrix(-0.32341 -0.946259 0.944523 -0.328446 87.6074 258.103)" fill="#FFEEC3"/>
<rect width="8.03557" height="12.051" transform="matrix(-0.696106 0.717939 -0.711897 -0.702284 282.173 248.463)" fill="#CDF0FF"/>
<defs>
<filter id="filter0_d_937_13441" x="153.168" y="457.67" width="67.248" height="76.7998" filterUnits="userSpaceOnUse" color-interpolation-filters="sRGB">
<feFlood flood-opacity="0" result="BackgroundImageFix"/>
<feColorMatrix in="SourceAlpha" type="matrix" values="0 0 0 0 0 0 0 0 0 0 0 0 0 0 0 0 0 0 127 0" result="hardAlpha"/>
<feOffset/>
<feGaussianBlur stdDeviation="15"/>
<feColorMatrix type="matrix" values="0 0 0 0 0.203922 0 0 0 0 0.760784 0 0 0 0 1 0 0 0 1 0"/>
<feBlend mode="normal" in2="BackgroundImageFix" result="effect1_dropShadow_937_13441"/>
<feBlend mode="normal" in="SourceGraphic" in2="effect1_dropShadow_937_13441" result="shape"/>
</filter>
<linearGradient id="paint0_linear_937_13441" x1="187.5" y1="0" x2="187.5" y2="540" gradientUnits="userSpaceOnUse">
<stop stop-color="#F5FCFF"/>
<stop offset="1" stop-color="#F9F9F9" stop-opacity="0"/>
</linearGradient>
</defs>
</svg>
