<svg width="168" height="63" viewBox="0 0 168 63" fill="none" xmlns="http://www.w3.org/2000/svg">
<path fill-rule="evenodd" clip-rule="evenodd" d="M10 0C4.47715 0 0 4.47715 0 10V44C0 49.5228 4.47715 54 10 54H79L84 63L89 54H158C163.523 54 168 49.5228 168 44V10C168 4.47715 163.523 0 158 0H10Z" fill="#787B80"/>
<path d="M28.0451 19.5078H18.506V20.2812H22.7951V23.9492H23.6974V20.2812H28.0451V19.5078ZM19.5841 16.25C19.59 17.6387 21.0607 18.5176 23.2521 18.5117C25.4377 18.5176 26.9201 17.6387 26.9201 16.25C26.9201 14.8379 25.4377 13.959 23.2521 13.9531C21.0607 13.959 19.59 14.8379 19.5841 16.25ZM20.5334 16.25C20.5216 15.3066 21.6291 14.7031 23.2521 14.7031C24.8752 14.7031 25.9767 15.3066 25.9826 16.25C25.9767 17.1758 24.8752 17.7734 23.2521 17.7734C21.6291 17.7734 20.5216 17.1758 20.5334 16.25ZM37.3704 13.5312H36.4563V23.9727H37.3704V13.5312ZM29.3548 15.2656H33.2805V17.457H29.3782V21.4414H30.2454C32.0442 21.4414 33.6262 21.3652 35.5423 21.0664L35.4485 20.293C33.5852 20.5918 32.0442 20.6738 30.3157 20.668V18.207H34.2063V14.5039H29.3548V15.2656ZM42.4301 14.293C40.7836 14.2988 39.6117 15.2949 39.6176 16.7422C39.6117 18.1953 40.7836 19.1855 42.4301 19.1914C44.0648 19.1855 45.225 18.1953 45.2309 16.7422C45.225 15.2949 44.0648 14.2988 42.4301 14.293ZM39.0785 20.8906L39.2074 21.6758C41.0824 21.6758 43.643 21.6641 46.0277 21.2188L45.9574 20.5391C43.6547 20.8789 41.0004 20.8965 39.0785 20.8906ZM40.5199 16.7422C40.5141 15.7754 41.3168 15.1016 42.4301 15.1016C43.5316 15.1016 44.3344 15.7754 44.3285 16.7422C44.3344 17.7148 43.5316 18.3828 42.4301 18.3828C41.3168 18.3828 40.5141 17.7148 40.5199 16.7422ZM46.6488 23.9727H47.5629V13.5312H46.6488V23.9727ZM56.8737 20.1172C54.6412 20.1172 53.2233 20.8203 53.2291 22.0273C53.2233 23.2227 54.6412 23.9258 56.8737 23.9258C59.1061 23.9258 60.5241 23.2227 60.5299 22.0273C60.5241 20.8203 59.1061 20.1172 56.8737 20.1172ZM52.1744 19.1445H61.6549V18.3945H57.0026V16.3789H56.1002V18.3945H52.1744V19.1445ZM53.2994 14.8203H59.5338V14.9492C59.5338 15.7637 59.5338 16.5371 59.2526 17.6094L60.1549 17.7148C60.442 16.6367 60.442 15.793 60.4479 14.9492V14.0703H53.2994V14.8203ZM54.1432 22.0273C54.1373 21.2832 55.2155 20.8262 56.8737 20.8203C58.5377 20.8262 59.6041 21.2832 59.6159 22.0273C59.6041 22.7539 58.5377 23.1992 56.8737 23.1992C55.2155 23.1992 54.1373 22.7539 54.1432 22.0273ZM71.906 19.0625H67.6052V18.0312H70.781V17.293H64.5935V16.2617H70.4412V15.5586H64.5935V14.5859H70.7224V13.8359H63.6677V18.0312H66.6912V19.0625H62.4021V19.8125H71.906V19.0625ZM63.5623 22.2617C63.5564 23.3574 64.8513 23.9258 67.1599 23.9258C69.4451 23.9258 70.7341 23.3574 70.7459 22.2617C70.7341 21.1777 69.4451 20.5859 67.1599 20.5977C64.8513 20.5859 63.5564 21.1777 63.5623 22.2617ZM64.488 22.2617C64.4763 21.6406 65.4373 21.2949 67.1599 21.2891C68.865 21.2949 69.8142 21.6406 69.8201 22.2617C69.8142 22.8945 68.865 23.2227 67.1599 23.2109C65.4373 23.2227 64.4763 22.8945 64.488 22.2617ZM81.334 14.3398H76.1426V15.1133H80.4258C80.4141 15.7754 80.3906 16.6602 80.1387 17.9023L81.0644 17.9727C81.3281 16.6133 81.3281 15.5762 81.334 14.8906V14.3398ZM75.498 18.9453L75.5918 19.707C77.4492 19.7012 79.957 19.6602 82.1426 19.2852L82.084 18.6055C81 18.7578 79.8047 18.8398 78.6504 18.8867V16.6484H77.7363V18.916C76.9336 18.9395 76.1719 18.9453 75.498 18.9453ZM77.1035 23.7266H84.0644V22.9531H78.0293V20.668H77.1035V23.7266ZM82.7871 21.3711H83.7246V17.7148H85.248V16.9297H83.7246V13.5312H82.7871V21.3711ZM94.4093 13.543H93.4952V19.4609H94.4093V13.543ZM85.8898 18.4648L86.3585 19.1914C87.6007 18.7285 88.5734 17.7676 89.0362 16.5605C89.505 17.6973 90.4718 18.5762 91.6788 18.9922L92.1476 18.2891C90.6124 17.7441 89.4874 16.4434 89.4991 14.9727V13.9531H88.5616V14.9727C88.5616 16.502 87.4659 17.9141 85.8898 18.4648ZM87.6359 23.8086H94.4093V20.0586H87.6359V23.8086ZM88.5382 23.0586V20.8086H93.507V23.0586H88.5382ZM99.551 16.332V14.4336H98.6487V16.332C98.6369 18.2363 97.4299 20.2344 95.9065 20.9844L96.4924 21.7227C97.6643 21.0957 98.6487 19.7773 99.1116 18.2422C99.5744 19.6895 100.535 20.9258 101.684 21.5234L102.246 20.7852C100.764 20.0586 99.551 18.166 99.551 16.332ZM103.207 23.9492H104.121V18.5586H105.867V17.7617H104.121V13.5312H103.207V23.9492ZM115.837 18.3711H106.298V19.0977H115.837V18.3711ZM107.447 20.6211H113.728V21.5117H107.458V23.8086H114.982V23.1406H108.384V22.1445H114.642V19.9297H107.447V20.6211ZM107.505 14.5156H113.681V15.3711H107.54V17.5859H114.794V16.918H108.454V16.0039H114.607V13.8477H107.505V14.5156ZM123.004 15.7109V15.5117H125.359V14.75H123.027V13.4844H122.101V14.75H119.746V15.5117H122.101V15.7109C122.095 17.082 121.005 18.2773 119.453 18.7461L119.91 19.4727C121.146 19.0684 122.113 18.2246 122.564 17.1348C123.027 18.125 123.959 18.8984 125.16 19.2617L125.593 18.5586C124.052 18.1016 123.009 16.959 123.004 15.7109ZM120.507 23.1992L120.859 23.9023C122.371 23.6445 123.748 22.9004 124.339 21.8633C124.937 22.9062 126.32 23.6621 127.843 23.9141L128.183 23.1992C126.513 22.9297 124.978 21.9922 124.832 20.9023H127.785V20.1523H120.918V20.9023H123.859C123.707 22.0156 122.183 22.9297 120.507 23.1992ZM126.683 19.5898H127.597V16.8828H129.168V16.1094H127.597V13.5312H126.683V19.5898ZM134.45 14.2109C132.276 14.2168 130.641 15.3535 130.641 17.0703C130.641 18.8047 132.276 19.9414 134.45 19.9297C136.624 19.9414 138.259 18.8047 138.259 17.0703C138.259 15.3535 136.624 14.2168 134.45 14.2109ZM129.704 22.5664H139.243V21.793H129.704V22.5664ZM131.52 17.0703C131.509 15.8223 132.768 14.9551 134.45 14.9609C136.12 14.9551 137.368 15.8223 137.368 17.0703C137.368 18.3359 136.12 19.1797 134.45 19.1797C132.768 19.1797 131.509 18.3359 131.52 17.0703ZM145.123 14.5742H140.377V21.3125H145.123V19.6719H147.678V23.9727H148.592V13.5312H147.678V16.0391H145.123V14.5742ZM141.291 20.5742V15.3008H144.232V20.5742H141.291ZM145.123 18.9102V16.8008H147.678V18.9102H145.123ZM45.6834 30.543H44.7694V38.3477H45.6834V34.75H47.2537V33.9766H45.6834V30.543ZM37.5623 32.5703H43.7733V31.8203H41.1248V30.543H40.2108V31.8203H37.5623V32.5703ZM38.16 35.0898C38.1541 36.2617 39.162 37.0176 40.6678 37.0117C42.1561 37.0176 43.1639 36.2617 43.1756 35.0898C43.1639 33.9062 42.1561 33.1445 40.6678 33.1445C39.162 33.1445 38.1541 33.9062 38.16 35.0898ZM39.0389 35.0898C39.033 34.3457 39.6834 33.8652 40.6678 33.8711C41.6405 33.8652 42.2967 34.3457 42.3084 35.0898C42.2967 35.8223 41.6405 36.2969 40.6678 36.2852C39.6834 36.2969 39.033 35.8223 39.0389 35.0898ZM39.1678 40.7266H46.1639V39.9531H40.0702V37.7266H39.1678V40.7266ZM60.1739 35.8281H50.6817V36.5898H60.1739V35.8281ZM51.2325 34.4336L51.5255 35.1484C53.2481 34.9668 54.7891 34.3457 55.4278 33.2969C56.0606 34.3457 57.6075 34.9668 59.3302 35.1484L59.6114 34.4336C57.6661 34.252 56.0079 33.4609 55.9317 32.3008H59.213V31.5508H55.8731V30.5078H54.9708V31.5508H51.6661V32.3008H54.918C54.836 33.4609 53.1837 34.252 51.2325 34.4336ZM51.8302 39.2031C51.8243 40.3223 53.1602 40.9258 55.4278 40.9258C57.6837 40.9258 59.002 40.3223 59.0137 39.2031C59.002 38.084 57.6837 37.4805 55.4278 37.4805C53.1602 37.4805 51.8243 38.084 51.8302 39.2031ZM52.7677 39.2031C52.7559 38.5469 53.7403 38.1777 55.4278 38.1719C57.0977 38.1777 58.0821 38.5469 58.088 39.2031C58.0821 39.8594 57.0977 40.2227 55.4278 40.2109C53.7403 40.2227 52.7559 39.8594 52.7677 39.2031ZM69.1331 31.5273H64.3519V38.3945H65.1488C67.1468 38.3945 68.4183 38.3242 69.9534 38.0312L69.8363 37.2695C68.3948 37.5508 67.1585 37.6152 65.2777 37.6094V32.3008H69.1331V31.5273ZM68.512 35.0898H71.5472V40.9727H72.473V30.5312H71.5472V34.3281H68.512V35.0898ZM85.0298 30.5312H84.1158V40.9492H85.0298V35.5469H86.7173V34.7734H85.0298V30.5312ZM77.0377 38.2422L77.5533 38.9688C80.9459 37.293 82.3287 34.6035 82.3345 31.6562H77.5181V32.4297H81.4029C81.192 34.8965 79.7271 36.9062 77.0377 38.2422ZM95.4684 30.5312H94.5427V40.9492H95.4684V35.6055H97.0505V34.832H95.4684V30.5312ZM87.1833 38.0664L87.9216 38.5938C89.8141 36.5957 90.3708 34.1465 90.3825 31.668H87.5114V32.4414H89.5095C89.3923 34.5156 88.7536 36.4551 87.1833 38.0664ZM90.1716 38.7695L90.9216 39.2852C92.8727 37.0176 93.236 34.1406 93.2419 31.668H90.7106V32.4414H92.3747C92.2868 34.6152 91.8005 36.9297 90.1716 38.7695ZM106.095 30.543H105.157V37.668H102.755V38.3711H105.157V40.9609H106.095V30.543ZM97.4227 36.0273L97.5516 36.8125C98.3895 36.8125 99.3445 36.8008 100.341 36.7656V40.6328H101.266V36.7188C102.304 36.6543 103.376 36.5547 104.407 36.3789L104.348 35.6875C102.052 36.0156 99.409 36.0215 97.4227 36.0273ZM98.2195 33.1094C98.2137 34.3457 99.2918 35.1426 100.856 35.1484C102.403 35.1426 103.487 34.3457 103.481 33.1094C103.487 31.8848 102.403 31.0586 100.856 31.0586C99.2918 31.0586 98.2137 31.8848 98.2195 33.1094ZM99.0867 33.1094C99.0809 32.3242 99.8074 31.7793 100.856 31.7734C101.882 31.7793 102.608 32.3242 102.614 33.1094C102.608 33.9004 101.882 34.4395 100.856 34.4336C99.8074 34.4395 99.0809 33.9004 99.0867 33.1094ZM116.357 30.5312H115.432V33.4727H113.299V34.2461H115.432V35.6875H113.299V36.4609H115.432V40.9492H116.357V30.5312ZM107.65 38.2305L108.26 38.9336C109.408 38.2891 110.428 36.9297 110.891 35.3594C111.371 36.7891 112.367 38.0781 113.51 38.6758L114.06 37.9727C112.578 37.2227 111.336 35.2598 111.33 33.625V32.3711H113.709V31.6094H108.025V32.3711H110.404V33.625C110.398 35.4824 109.139 37.4863 107.65 38.2305ZM127.511 38.8398H125.144V36.0039C126.005 35.541 126.526 34.8027 126.526 33.8711C126.526 32.2598 124.944 31.1992 122.718 31.1875C120.491 31.1992 118.909 32.2598 118.909 33.8711C118.909 34.8203 119.448 35.5703 120.339 36.0332V38.8398H117.972V39.6133H127.511V38.8398ZM119.8 33.8711C119.794 32.7051 121.007 31.9375 122.718 31.9492C124.411 31.9375 125.636 32.7051 125.636 33.8711C125.636 35.0371 124.411 35.8164 122.718 35.8164C121.007 35.8164 119.794 35.0371 119.8 33.8711ZM121.241 38.8398V36.3672C121.687 36.4844 122.185 36.543 122.718 36.543C123.263 36.543 123.767 36.4785 124.218 36.3613V38.8398H121.241ZM129.91 31.5156H128.762L128.844 37.6094H129.828L129.91 31.5156ZM128.586 39.3086C128.574 39.7246 128.926 40.0645 129.336 40.0703C129.752 40.0645 130.092 39.7246 130.086 39.3086C130.092 38.8984 129.752 38.5586 129.336 38.5586C128.926 38.5586 128.574 38.8984 128.586 39.3086Z" fill="white"/>
</svg>
