<svg width="100" height="100" viewBox="0 0 100 100" fill="none" xmlns="http://www.w3.org/2000/svg">
<path d="M43.6306 44.8092H30.2111C29.3266 44.8308 28.6146 44.2695 28.6146 43.557L28.5283 15.1236C28.5283 14.0441 30.0817 13.4612 31.1388 14.1305L44.5799 22.8311C44.9466 23.0686 45.1624 23.4356 45.1624 23.8242L45.2271 43.5354C45.2271 44.2479 44.5151 44.8092 43.6306 44.8092Z" fill="url(#paint0_linear_936_12176)"/>
<path d="M57.7612 46.126H69.2389C71.7632 46.126 73.8128 47.7884 73.8128 49.8178V83.627C73.8128 84.5337 72.8851 85.2894 71.7632 85.2894H55.2586C54.1367 85.2894 53.209 84.5553 53.209 83.627V49.8178C53.209 47.7884 55.2586 46.126 57.7828 46.126H57.7612Z" fill="#FFBDE0"/>
<path d="M45.3989 53.876H28.3549C27.1467 53.876 26.1543 54.7396 26.1543 55.7974V83.3457C26.1543 84.4036 27.1467 85.2671 28.3549 85.2671H45.3989C46.6071 85.2671 47.5995 84.4036 47.5995 83.3457V55.7974C47.5995 54.7396 46.6071 53.876 45.3989 53.876Z" fill="url(#paint1_linear_936_12176)"/>
<path d="M28.1606 43.3623H45.6145C46.7148 43.3623 47.5994 44.2475 47.5994 45.3485V55.7331H26.1758V45.3485C26.1758 44.2475 27.0603 43.3623 28.1606 43.3623Z" fill="#FF6EBC"/>
<defs>
<linearGradient id="paint0_linear_936_12176" x1="21.7323" y1="24.2128" x2="42.5596" y2="36.83" gradientUnits="userSpaceOnUse">
<stop stop-color="#FFF3A8"/>
<stop offset="1" stop-color="#FFD775"/>
</linearGradient>
<linearGradient id="paint1_linear_936_12176" x1="26.1759" y1="69.5716" x2="47.5995" y2="69.5716" gradientUnits="userSpaceOnUse">
<stop stop-color="#FF96E0"/>
<stop offset="1" stop-color="#FFBDE0"/>
</linearGradient>
</defs>
</svg>
