<svg width="30" height="30" viewBox="0 0 30 30" fill="none" xmlns="http://www.w3.org/2000/svg">
<path fill-rule="evenodd" clip-rule="evenodd" d="M17.7349 13.0255L15.7317 15.0045L17.7349 16.9836C17.8867 17.1335 17.972 17.3369 17.972 17.549C17.972 17.7611 17.8867 17.9645 17.7349 18.1144C17.5831 18.2644 17.3772 18.3487 17.1626 18.3487C16.9479 18.3487 16.742 18.2644 16.5902 18.1144L14.587 16.1354L12.5838 18.1144C12.432 18.2644 12.2261 18.3487 12.0115 18.3487C11.7968 18.3487 11.5909 18.2644 11.4391 18.1144C11.2873 17.9645 11.202 17.7611 11.202 17.549C11.202 17.3369 11.2873 17.1335 11.4391 16.9836L13.4423 15.0045L11.4391 13.0255C11.2873 12.8755 11.202 12.6721 11.202 12.46C11.202 12.248 11.2873 12.0446 11.4391 11.8946C11.5909 11.7446 11.7968 11.6604 12.0115 11.6604C12.2261 11.6604 12.432 11.7446 12.5838 11.8946L14.587 13.8736L16.5902 11.8946C16.742 11.7446 16.9479 11.6604 17.1626 11.6604C17.3772 11.6604 17.5831 11.7446 17.7349 11.8946C17.8867 12.0446 17.972 12.248 17.972 12.46C17.972 12.6721 17.8867 12.8755 17.7349 13.0255ZM8.2958 8.78016C4.8188 12.2152 4.8188 17.7848 8.2958 21.2198C11.7728 24.6549 17.4104 24.6549 20.8874 21.2198C24.3644 17.7848 24.3644 12.2152 20.8874 8.78016C17.4104 5.34512 11.7728 5.34512 8.2958 8.78016Z" fill="#E1E4E8"/>
</svg>
