<svg width="18" height="18" viewBox="0 0 18 18" fill="none" xmlns="http://www.w3.org/2000/svg">
<path d="M5.64609 8.13516C5.56965 8.05537 5.51774 7.95529 5.49654 7.84684C5.47535 7.73839 5.48577 7.62613 5.52656 7.52344C5.56851 7.41975 5.64041 7.33091 5.73309 7.26829C5.82578 7.20567 5.93502 7.1721 6.04688 7.17188H8.4375V2.8125C8.4375 2.66332 8.49676 2.52024 8.60225 2.41475C8.70774 2.30926 8.85082 2.25 9 2.25C9.14918 2.25 9.29226 2.30926 9.39775 2.41475C9.50324 2.52024 9.5625 2.66332 9.5625 2.8125V7.17188H11.9531C12.065 7.1721 12.1742 7.20567 12.2669 7.26829C12.3596 7.33091 12.4315 7.41975 12.4734 7.52344C12.5142 7.62613 12.5246 7.73839 12.5035 7.84684C12.4823 7.95529 12.4304 8.05537 12.3539 8.13516L9.40078 11.0883C9.29326 11.1922 9.14956 11.2504 9 11.2504C8.85044 11.2504 8.70674 11.1922 8.59922 11.0883L5.64609 8.13516ZM15.1875 10.125C15.0383 10.125 14.8952 10.1843 14.7898 10.2898C14.6843 10.3952 14.625 10.5383 14.625 10.6875V14.625H3.375V10.6875C3.375 10.5383 3.31574 10.3952 3.21025 10.2898C3.10476 10.1843 2.96168 10.125 2.8125 10.125C2.66332 10.125 2.52024 10.1843 2.41475 10.2898C2.30926 10.3952 2.25 10.5383 2.25 10.6875V14.625C2.25 14.9234 2.36853 15.2095 2.5795 15.4205C2.79048 15.6315 3.07663 15.75 3.375 15.75H14.625C14.9234 15.75 15.2095 15.6315 15.4205 15.4205C15.6315 15.2095 15.75 14.9234 15.75 14.625V10.6875C15.75 10.5383 15.6907 10.3952 15.5852 10.2898C15.4798 10.1843 15.3367 10.125 15.1875 10.125Z" fill="#8C8F99"/>
</svg>
