<svg width="22" height="22" viewBox="0 0 22 22" fill="none" xmlns="http://www.w3.org/2000/svg">
<g clip-path="url(#clip0_743_10899)">
<path fill-rule="evenodd" clip-rule="evenodd" d="M11.0003 15.6918C10.7086 15.6918 10.4288 15.5759 10.2225 15.3696C10.0162 15.1634 9.90033 14.8836 9.90033 14.5918C9.90033 14.3001 10.0162 14.0203 10.2225 13.814C10.4288 13.6077 10.7086 13.4918 11.0003 13.4918C11.2921 13.4918 11.5719 13.6077 11.7781 13.814C11.9844 14.0203 12.1003 14.3001 12.1003 14.5918C12.1003 14.8836 11.9844 15.1634 11.7781 15.3696C11.5719 15.5759 11.2921 15.6918 11.0003 15.6918ZM10.0837 6.67641C10.0837 6.43329 10.1802 6.20014 10.3521 6.02823C10.5241 5.85632 10.7572 5.75974 11.0003 5.75974C11.2434 5.75974 11.4766 5.85632 11.6485 6.02823C11.8204 6.20014 11.917 6.43329 11.917 6.67641V11.2597C11.917 11.5029 11.8204 11.736 11.6485 11.9079C11.4766 12.0798 11.2434 12.1764 11.0003 12.1764C10.7572 12.1764 10.5241 12.0798 10.3521 11.9079C10.1802 11.736 10.0837 11.5029 10.0837 11.2597V6.67641ZM11.0003 0.916992C5.43158 0.916992 0.916992 5.43158 0.916992 11.0003C0.916992 16.57 5.43158 21.0837 11.0003 21.0837C16.5691 21.0837 21.0837 16.57 21.0837 11.0003C21.0837 5.43158 16.5691 0.916992 11.0003 0.916992Z" fill="white"/>
</g>
<defs>
<clipPath id="clip0_743_10899">
<rect width="22" height="22" fill="white"/>
</clipPath>
</defs>
</svg>
