<svg width="100" height="100" viewBox="0 0 100 100" fill="none" xmlns="http://www.w3.org/2000/svg">
<path d="M20.7932 68.4688H79.418C81.5581 68.4688 83.2884 70.2002 83.2884 72.3418V73.4354C83.2884 79.0854 78.6894 83.6875 73.0433 83.6875H27.168C21.5218 83.6875 16.9229 79.0854 16.9229 73.4354V72.3418C16.9229 70.2002 18.6531 68.4688 20.7932 68.4688Z" fill="url(#paint0_linear_936_12143)"/>
<path d="M79.4177 68.4688H20.793C18.9488 68.4688 17.4007 69.7674 17.0137 71.4988H83.1743C82.7872 69.7674 81.2391 68.4688 79.395 68.4688H79.4177Z" fill="#34C2FF"/>
<path d="M77.0958 56.873H23.1155C20.978 56.873 19.2451 58.6071 19.2451 60.7461V65.3254C19.2451 67.4644 20.978 69.1984 23.1155 69.1984H77.0958C79.2333 69.1984 80.9662 67.4644 80.9662 65.3254V60.7461C80.9662 58.6071 79.2333 56.873 77.0958 56.873Z" fill="url(#paint1_linear_936_12143)"/>
<path d="M77.0958 46.9873H23.1155C20.978 46.9873 19.2451 48.7213 19.2451 50.8604V53.0019C19.2451 55.1409 20.978 56.875 23.1155 56.875H77.0958C79.2333 56.875 80.9662 55.1409 80.9662 53.0019V50.8604C80.9662 48.7213 79.2333 46.9873 77.0958 46.9873Z" fill="url(#paint2_linear_936_12143)"/>
<path d="M40.8053 18.4619H59.4059C72.5879 18.4619 83.2884 29.1697 83.2884 42.3609C83.2884 44.9125 81.2166 46.9857 78.6667 46.9857H21.5445C18.9946 46.9857 16.9229 44.9125 16.9229 42.3609C16.9229 29.1697 27.6233 18.4619 40.8053 18.4619Z" fill="url(#paint3_linear_936_12143)"/>
<path d="M49.0697 34.1367C48.3184 35.0935 46.9524 35.253 45.9962 34.524C45.04 33.7949 44.8806 32.4052 45.6091 31.4483C46.3377 30.4915 49.525 29.9902 49.525 29.9902C49.525 29.9902 49.7982 33.1798 49.0697 34.1367Z" fill="white"/>
<path d="M60.9997 26.1393C61.9104 26.9367 62.0015 28.3264 61.2046 29.2377C60.4078 30.149 59.019 30.2402 58.1083 29.4428C57.1976 28.6454 56.8789 25.4558 56.8789 25.4558C56.8789 25.4558 60.0891 25.3419 60.9997 26.1393Z" fill="white"/>
<path d="M43.401 26.1168C42.7863 27.1648 41.443 27.5065 40.3957 26.8914C39.3485 26.2763 39.007 24.9321 39.6217 23.8841C40.2364 22.8361 43.3099 21.9248 43.3099 21.9248C43.3099 21.9248 44.0157 25.0688 43.401 26.094V26.1168Z" fill="white"/>
<defs>
<linearGradient id="paint0_linear_936_12143" x1="16.9229" y1="76.0781" x2="83.2884" y2="76.0781" gradientUnits="userSpaceOnUse">
<stop stop-color="#9CE1FF"/>
<stop offset="1" stop-color="#B0F2DE"/>
</linearGradient>
<linearGradient id="paint1_linear_936_12143" x1="80.9662" y1="63.0471" x2="19.2451" y2="63.0471" gradientUnits="userSpaceOnUse">
<stop stop-color="#FFF395"/>
<stop offset="0.83" stop-color="#B0F2DE"/>
</linearGradient>
<linearGradient id="paint2_linear_936_12143" x1="80.9662" y1="51.9311" x2="19.2451" y2="51.9311" gradientUnits="userSpaceOnUse">
<stop stop-color="#FFF395"/>
<stop offset="0.83" stop-color="#B0F2DE"/>
</linearGradient>
<linearGradient id="paint3_linear_936_12143" x1="16.9229" y1="32.7238" x2="83.2884" y2="32.7238" gradientUnits="userSpaceOnUse">
<stop stop-color="#9CE1FF"/>
<stop offset="1" stop-color="#B0F2DE"/>
</linearGradient>
</defs>
</svg>
