<svg width="100" height="100" viewBox="0 0 100 100" fill="none" xmlns="http://www.w3.org/2000/svg">
<path d="M76.2715 23.0771L22.7431 23.0771C18.6811 23.0771 15.3848 26.1204 15.3848 29.8872L15.3848 71.1093C15.3848 74.8761 18.6811 77.9194 22.7431 77.9194C24.9761 77.9194 27.0815 76.983 28.4851 75.3869L38.5868 63.7459C39.9904 62.1286 42.0958 61.2134 44.3288 61.2134L54.707 61.2134C56.94 61.2134 59.0454 62.1498 60.449 63.7459L70.5507 75.3869C71.9543 77.0043 74.0597 77.9194 76.2927 77.9194C80.3547 77.9194 83.651 74.8761 83.651 71.1093L83.651 29.8872C83.651 26.1204 80.3547 23.0771 76.2927 23.0771H76.2715Z" fill="url(#paint0_linear_936_12136)"/>
<path d="M43.4146 36.9522H38.1405V31.6744C38.1405 31.0785 37.6726 30.6104 37.0771 30.6104H32.3559C31.7604 30.6104 31.2926 31.0785 31.2926 31.6744V36.9522H26.0184C25.4229 36.9522 24.9551 37.4204 24.9551 38.0163L24.9551 42.7408C24.9551 43.3366 25.4229 43.8048 26.0184 43.8048H31.2926L31.2926 49.0826C31.2926 49.6785 31.7604 50.1467 32.3559 50.1467H37.0771C37.6726 50.1467 38.1405 49.6785 38.1405 49.0826V43.8048H43.4146C44.0101 43.8048 44.478 43.3366 44.478 42.7408V38.0163C44.478 37.4204 44.0101 36.9522 43.4146 36.9522Z" fill="url(#paint1_linear_936_12136)"/>
<path d="M70.0196 40.4005L73.7412 36.6763C74.1666 36.2506 74.1666 35.5909 73.7412 35.1653L70.4023 31.8241C69.977 31.3985 69.3178 31.3985 68.8924 31.8241L65.1707 35.5484L61.4491 31.8241C61.0237 31.3985 60.3644 31.3985 59.9391 31.8241L56.6003 35.1653C56.1749 35.5909 56.1749 36.2506 56.6003 36.6763L60.3219 40.4005L56.6003 44.1248C56.1749 44.5504 56.1749 45.2101 56.6003 45.6358L59.9391 48.9769C60.3644 49.4026 61.0237 49.4026 61.4491 48.9769L65.1707 45.2527L68.8924 48.9769C69.3178 49.4026 69.977 49.4026 70.4023 48.9769L73.7412 45.6358C74.1666 45.2101 74.1666 44.5504 73.7412 44.1248L70.0196 40.4005Z" fill="url(#paint2_linear_936_12136)"/>
<defs>
<linearGradient id="paint0_linear_936_12136" x1="12.1948" y1="28.5465" x2="71.0394" y2="63.0933" gradientUnits="userSpaceOnUse">
<stop stop-color="#FFF395"/>
<stop offset="0.95" stop-color="#B0F2DE"/>
</linearGradient>
<linearGradient id="paint1_linear_936_12136" x1="32.1777" y1="39.4373" x2="41.9622" y2="55.4013" gradientUnits="userSpaceOnUse">
<stop stop-color="white"/>
<stop offset="1" stop-color="white" stop-opacity="0"/>
</linearGradient>
<linearGradient id="paint2_linear_936_12136" x1="59.4717" y1="33.773" x2="79.5555" y2="56.9466" gradientUnits="userSpaceOnUse">
<stop stop-color="#2AE4AC"/>
<stop offset="1" stop-color="#42EAB7" stop-opacity="0"/>
</linearGradient>
</defs>
</svg>
