<svg width="100" height="100" viewBox="0 0 100 100" fill="none" xmlns="http://www.w3.org/2000/svg">
<path d="M18.1122 35.7911L35.7981 18.1052C36.6701 17.2332 36.6701 15.8195 35.7981 14.9475L33.9004 13.0498C33.0284 12.1778 31.6147 12.1778 30.7427 13.0498L13.0568 30.7357C12.1848 31.6077 12.1848 33.0214 13.0568 33.8934L14.9545 35.7911C15.8265 36.6631 17.2402 36.6631 18.1122 35.7911Z" fill="#6AE7C1"/>
<path d="M26.6281 47.6551L47.6472 26.6361C48.6953 25.5879 48.6953 23.8886 47.6472 22.8405L38.7324 13.9258C37.6843 12.8777 35.985 12.8777 34.9369 13.9258L13.9179 34.9448C12.8697 35.9929 12.8698 37.6922 13.9179 38.7403L22.8326 47.6551C23.8807 48.7032 25.58 48.7032 26.6281 47.6551Z" fill="url(#paint0_linear_936_12237)"/>
<path d="M40.2798 33.9722L33.9805 40.2715L62.7979 69.0889L69.0972 62.7896L40.2798 33.9722Z" fill="#6AE7C1"/>
<path d="M80.8497 63.1561L63.1638 80.8421C62.2918 81.714 62.2918 83.1278 63.1638 83.9997L65.0615 85.8975C65.9335 86.7694 67.3472 86.7694 68.2192 85.8975L85.9051 68.2115C86.7771 67.3396 86.7771 65.9259 85.9051 65.0539L84.0074 63.1561C83.1354 62.2842 81.7217 62.2842 80.8497 63.1561Z" fill="#6AE7C1"/>
<path d="M72.3494 51.3078L51.3304 72.3268C50.2823 73.3749 50.2823 75.0743 51.3304 76.1224L60.2451 85.0371C61.2932 86.0852 62.9926 86.0852 64.0407 85.0371L85.0597 64.0181C86.1078 62.97 86.1078 61.2707 85.0597 60.2226L76.1449 51.3078C75.0968 50.2597 73.3975 50.2597 72.3494 51.3078Z" fill="url(#paint1_linear_936_12237)"/>
<defs>
<linearGradient id="paint0_linear_936_12237" x1="49.4811" y1="22.8884" x2="16.5173" y2="36.8107" gradientUnits="userSpaceOnUse">
<stop stop-color="#FFF395"/>
<stop offset="0.95" stop-color="#B0F2DE"/>
</linearGradient>
<linearGradient id="paint1_linear_936_12237" x1="49.4805" y1="76.0586" x2="82.4283" y2="62.1522" gradientUnits="userSpaceOnUse">
<stop stop-color="#FFF395"/>
<stop offset="0.95" stop-color="#B0F2DE"/>
</linearGradient>
</defs>
</svg>
