<svg width="100" height="100" viewBox="0 0 100 100" fill="none" xmlns="http://www.w3.org/2000/svg">
<path d="M38.6348 66.9287H59.9699V76.2094C59.9699 77.5505 58.9702 78.636 57.7577 78.636H40.8683C39.6345 78.636 38.656 77.5505 38.656 76.2094V66.9287H38.6348Z" fill="#91F9D9"/>
<path d="M61.0972 73.3164H37.5072C36.3442 73.3164 35.4014 74.2599 35.4014 75.4237V77.9568C35.4014 79.1206 36.3442 80.0641 37.5072 80.0641H61.0972C62.2602 80.0641 63.2031 79.1206 63.2031 77.9568V75.4237C63.2031 74.2599 62.2602 73.3164 61.0972 73.3164Z" fill="#55F1C2"/>
<path d="M79.837 18.4619H18.7882C16.9085 18.4619 15.3848 19.9867 15.3848 21.8677V63.9502C15.3848 65.8312 16.9085 67.356 18.7882 67.356H79.837C81.7166 67.356 83.2404 65.8312 83.2404 63.9502V21.8677C83.2404 19.9867 81.7166 18.4619 79.837 18.4619Z" fill="#6AE7C1"/>
<path d="M76.1566 21.9531H22.4464C20.5667 21.9531 19.043 23.4779 19.043 25.3589V60.4809C19.043 62.3618 20.5667 63.8866 22.4464 63.8866H76.1566C78.0362 63.8866 79.56 62.3618 79.56 60.4809V25.3589C79.56 23.4779 78.0362 21.9531 76.1566 21.9531Z" fill="url(#paint0_linear_936_12206)"/>
<defs>
<linearGradient id="paint0_linear_936_12206" x1="12.0872" y1="27.4662" x2="67.9784" y2="50.662" gradientUnits="userSpaceOnUse">
<stop stop-color="#FFF395"/>
<stop offset="0.95" stop-color="#B0F2DE"/>
</linearGradient>
</defs>
</svg>
