<svg width="48" height="48" viewBox="0 0 48 48" fill="none" xmlns="http://www.w3.org/2000/svg">
<rect width="48" height="48" rx="24" fill="white"/>
<path d="M34.2498 13.7497C33.648 13.1438 32.9323 12.663 32.1439 12.3349C31.3555 12.0068 30.51 11.8379 29.6561 11.8379C28.8021 11.8379 27.9566 12.0068 27.1682 12.3349C26.3799 12.663 25.6641 13.1438 25.0623 13.7497L22.5873 16.2247C22.415 16.4149 22.3224 16.6641 22.3287 16.9207C22.335 17.1773 22.4398 17.4217 22.6213 17.6032C22.8028 17.7847 23.0472 17.8895 23.3038 17.8958C23.5604 17.9021 23.8096 17.8095 23.9998 17.6372L26.4748 15.1622C27.3203 14.3217 28.464 13.85 29.6561 13.85C30.8482 13.85 31.9919 14.3217 32.8373 15.1622C33.2565 15.5792 33.5891 16.0749 33.816 16.6208C34.043 17.1668 34.1598 17.7522 34.1598 18.3434C34.1598 18.9346 34.043 19.5201 33.816 20.066C33.5891 20.6119 33.2565 21.1077 32.8373 21.5247L29.2998 25.0622C28.4544 25.9026 27.3107 26.3743 26.1186 26.3743C24.9265 26.3743 23.7828 25.9026 22.9373 25.0622C22.8464 24.9618 22.736 24.8809 22.6128 24.8245C22.4897 24.7681 22.3563 24.7372 22.2209 24.7339C22.0855 24.7306 21.9508 24.7548 21.825 24.8051C21.6992 24.8554 21.585 24.9307 21.4892 25.0265C21.3934 25.1223 21.3181 25.2365 21.2678 25.3623C21.2175 25.4881 21.1933 25.6228 21.1966 25.7582C21.1999 25.8936 21.2307 26.027 21.2872 26.1501C21.3436 26.2733 21.4245 26.3837 21.5248 26.4747C22.7436 27.6922 24.3959 28.376 26.1186 28.376C27.8413 28.376 29.4936 27.6922 30.7123 26.4747L34.2498 22.9372C34.8557 22.3353 35.3365 21.6196 35.6646 20.8312C35.9927 20.0429 36.1616 19.1973 36.1616 18.3434C36.1616 17.4895 35.9927 16.644 35.6646 15.8556C35.3365 15.0672 34.8557 14.3515 34.2498 13.7497Z" fill="#34C2FF"/>
<path d="M24 30.3629L21.525 32.8379C20.6752 33.652 19.5404 34.1008 18.3637 34.0882C17.187 34.0756 16.062 33.6025 15.2299 32.7704C14.3978 31.9383 13.9248 30.8134 13.9122 29.6367C13.8995 28.46 14.3484 27.3251 15.1625 26.4754L18.7 22.9379C19.5454 22.0975 20.6891 21.6257 21.8812 21.6257C23.0733 21.6257 24.217 22.0975 25.0625 22.9379C25.2527 23.1102 25.5019 23.2029 25.7585 23.1965C26.0152 23.1902 26.2595 23.0855 26.441 22.9039C26.6225 22.7224 26.7273 22.4781 26.7336 22.2215C26.7399 21.9648 26.6473 21.7156 26.475 21.5254C25.2562 20.3079 23.6039 19.624 21.8812 19.624C20.1585 19.624 18.5063 20.3079 17.2875 21.5254L13.75 25.0629C13.114 25.6587 12.6043 26.3762 12.2513 27.1729C11.8982 27.9696 11.7089 28.8292 11.6947 29.7005C11.6805 30.5718 11.8416 31.4371 12.1685 32.2449C12.4955 33.0527 12.9815 33.7865 13.5977 34.4027C14.2138 35.0189 14.9477 35.5049 15.7554 35.8318C16.5632 36.1587 17.4285 36.3199 18.2998 36.3056C19.1712 36.2914 20.0307 36.1022 20.8274 35.7491C21.6241 35.396 22.3417 34.8863 22.9375 34.2504L25.4125 31.7754C25.5848 31.5852 25.6774 31.3359 25.6711 31.0793C25.6648 30.8227 25.56 30.5783 25.3785 30.3968C25.197 30.2153 24.9527 30.1106 24.696 30.1042C24.4394 30.0979 24.1902 30.1905 24 30.3629Z" fill="#34C2FF"/>
</svg>
