<svg width="23" height="23" viewBox="0 0 23 23" fill="none" xmlns="http://www.w3.org/2000/svg">
<path fill-rule="evenodd" clip-rule="evenodd" d="M7.39111 10.6853C7.84073 10.6853 8.28595 10.5989 8.70134 10.4309C9.11674 10.2629 9.49417 10.0167 9.8121 9.7063C10.13 9.3959 10.3822 9.02741 10.5543 8.62186C10.7264 8.2163 10.8149 7.78164 10.8149 7.34267C10.8149 6.90371 10.7264 6.46904 10.5543 6.06349C10.3822 5.65793 10.13 5.28944 9.8121 4.97905C9.49417 4.66865 9.11674 4.42243 8.70134 4.25445C8.28595 4.08646 7.84073 4 7.39111 4C6.48306 4 5.6122 4.35217 4.97011 4.97905C4.32802 5.60592 3.9673 6.45614 3.9673 7.34267C3.9673 8.2292 4.32802 9.07942 4.97011 9.7063C5.6122 10.3332 6.48306 10.6853 7.39111 10.6853ZM7.84761 16.195C7.84761 15.0683 8.55155 13.4005 10.1119 12.1374C9.34222 11.8727 8.4429 11.7069 7.39111 11.7069C2.78951 11.7069 1 14.7714 1 16.195C1 17.6212 4.81001 17.9991 7.39111 17.9991C7.82114 17.9991 8.28586 17.9875 8.76154 17.9635C8.15804 17.4937 7.84761 16.9054 7.84761 16.195Z" fill="#CDF0FF"/>
<path fill-rule="evenodd" clip-rule="evenodd" d="M15.6099 11.7078C11.0083 11.7078 9.21875 14.7714 9.21875 16.1958C9.21875 17.6203 13.0288 18 15.6099 18C18.191 18 22.001 17.6203 22.001 16.1958C22.001 14.7714 20.2115 11.7078 15.6099 11.7078ZM15.6099 10.6853C16.0595 10.6853 16.5047 10.5989 16.9201 10.4309C17.3355 10.2629 17.7129 10.0167 18.0309 9.7063C18.3488 9.3959 18.601 9.02741 18.773 8.62186C18.9451 8.2163 19.0337 7.78164 19.0337 7.34267C19.0337 6.90371 18.9451 6.46904 18.773 6.06349C18.601 5.65793 18.3488 5.28944 18.0309 4.97905C17.7129 4.66865 17.3355 4.42243 16.9201 4.25445C16.5047 4.08646 16.0595 4 15.6099 4C14.7018 4 13.8309 4.35217 13.1889 4.97905C12.5468 5.60592 12.186 6.45614 12.186 7.34267C12.186 8.2292 12.5468 9.07942 13.1889 9.7063C13.8309 10.3332 14.7018 10.6853 15.6099 10.6853Z" fill="white"/>
</svg>
