<svg width="100" height="100" viewBox="0 0 100 100" fill="none" xmlns="http://www.w3.org/2000/svg">
<path d="M21.3799 45.8545H81.3157V78.3873C81.3157 79.1798 81.024 79.9306 80.5238 80.4728C80.0237 81.015 79.3151 81.3487 78.6065 81.3487H24.1099C23.3805 81.3487 22.6928 81.0358 22.1926 80.4728C21.6925 79.9097 21.4007 79.1589 21.4007 78.3873V45.8545H21.3799Z" fill="url(#paint0_linear_936_12197)"/>
<path d="M81.3158 45.8545H21.3799V58.5757H81.3158V45.8545Z" fill="url(#paint1_linear_936_12197)"/>
<path d="M21.3795 48.0864L79.2522 32.5499L76.418 22.0184C76.3346 21.6639 76.1679 21.351 75.9595 21.0591C75.7511 20.7671 75.4802 20.5377 75.1676 20.35C74.855 20.1832 74.5215 20.0581 74.1672 20.0164C73.813 19.9747 73.4587 20.0164 73.1044 20.0998L20.5042 34.2182C20.15 34.3016 19.8374 34.4685 19.5456 34.677C19.2538 34.8855 19.0246 35.1566 18.837 35.4695C18.6495 35.7823 18.5453 36.116 18.4828 36.4705C18.4411 36.825 18.4619 37.1795 18.5453 37.5341L21.3795 48.0655V48.0864Z" fill="#FFBDE0"/>
<path d="M79.2734 32.5499L76.4391 22.0184C76.3558 21.6639 76.189 21.351 75.9806 21.0591C75.7722 20.7671 75.5013 20.5377 75.1887 20.35C74.8761 20.1832 74.5427 20.0581 74.1884 20.0164C73.8341 19.9747 73.4798 20.0164 73.1256 20.0998L52.0771 25.7305L68.77 35.3652L79.2942 32.529L79.2734 32.5499Z" fill="url(#paint2_linear_936_12197)"/>
<path d="M45.0538 41.747L28.4026 32.1123L20.5042 34.2186C20.15 34.302 19.8374 34.4689 19.5456 34.6774C19.2538 34.8859 19.0246 35.157 18.837 35.4699C18.6495 35.7827 18.5453 36.1163 18.4828 36.4709C18.4411 36.8254 18.4619 37.1799 18.5453 37.5344L21.3795 48.0659L45.0538 41.7262V41.747Z" fill="url(#paint3_linear_936_12197)"/>
<defs>
<linearGradient id="paint0_linear_936_12197" x1="21.3799" y1="63.6016" x2="81.3158" y2="63.6016" gradientUnits="userSpaceOnUse">
<stop stop-color="#FFE751"/>
<stop offset="1" stop-color="#F4DAFF"/>
</linearGradient>
<linearGradient id="paint1_linear_936_12197" x1="33.6016" y1="46.1669" x2="90.1209" y2="67.3617" gradientUnits="userSpaceOnUse">
<stop stop-color="#FF6EBC"/>
<stop offset="1" stop-color="#FF6EBC" stop-opacity="0"/>
</linearGradient>
<linearGradient id="paint2_linear_936_12197" x1="52.0563" y1="27.6908" x2="79.2734" y2="27.6908" gradientUnits="userSpaceOnUse">
<stop stop-color="#FF96E0"/>
<stop offset="1" stop-color="#FFBDE0"/>
</linearGradient>
<linearGradient id="paint3_linear_936_12197" x1="18.4619" y1="40.0995" x2="45.0538" y2="40.0995" gradientUnits="userSpaceOnUse">
<stop stop-color="#FF96E0"/>
<stop offset="1" stop-color="#FFBDE0"/>
</linearGradient>
</defs>
</svg>
