<svg width="100" height="100" viewBox="0 0 100 100" fill="none" xmlns="http://www.w3.org/2000/svg">
<path d="M24.6334 12.6938L12.6633 24.6722C12.2926 25.0431 12.2926 25.6444 12.6633 26.0153L14.38 27.7332C14.7506 28.1041 15.3515 28.1041 15.7221 27.7332L27.6922 15.7548C28.0629 15.3839 28.0629 14.7826 27.6922 14.4117L25.9755 12.6938C25.6049 12.3229 25.004 12.323 24.6334 12.6938Z" fill="#FFDC4A"/>
<path d="M29.6041 17.6421L17.634 29.6205C17.2633 29.9913 17.2633 30.5927 17.634 30.9635L19.3507 32.6814C19.7213 33.0523 20.3222 33.0523 20.6928 32.6814L32.6629 20.703C33.0336 20.3322 33.0336 19.7308 32.6629 19.36L30.9462 17.6421C30.5756 17.2712 29.9747 17.2712 29.6041 17.6421Z" fill="#FFDC4A"/>
<path d="M63.0135 35.0384C62.55 34.4863 62.0424 33.9783 61.5127 33.4703C54.2294 26.6236 42.4435 26.6899 34.8953 33.647C26.4863 41.355 26.1111 54.2533 33.858 62.0276C34.1449 62.3147 34.4318 62.5797 34.7188 62.8448C36.9038 64.7883 38.4487 67.2841 39.1329 70.1552C40.3247 75.235 43.1277 80.0056 47.5639 83.6056C56.5688 90.9161 69.8555 90.8057 79.1032 83.3406C91.198 73.6007 92.147 56.0864 81.7737 45.6839C78.4631 42.371 74.4241 40.2066 70.1203 39.1906C67.3835 38.5501 64.8233 37.2029 63.0135 35.0605V35.0384Z" fill="url(#paint0_linear_936_12124)"/>
<path d="M31.6022 23.9824L23.9551 31.6348L49.7837 57.4812L57.4308 49.8288L31.6022 23.9824Z" fill="url(#paint1_linear_936_12124)"/>
<path d="M19.7744 11.7691L11.7683 19.7808C11.2167 20.3328 11.2167 21.2278 11.7683 21.7798L24.3783 34.3985C24.93 34.9505 25.8243 34.9505 26.376 34.3985L34.3821 26.3868C34.9337 25.8348 34.9337 24.9398 34.3821 24.3878L21.7721 11.7691C21.2204 11.2171 20.3261 11.2171 19.7744 11.7691Z" fill="url(#paint2_linear_936_12124)"/>
<path d="M51.6258 60.415C56.4528 60.415 60.3658 56.4993 60.3658 51.6689C60.3658 46.8386 56.4528 42.9229 51.6258 42.9229C46.7988 42.9229 42.8857 46.8386 42.8857 51.6689C42.8857 56.4993 46.7988 60.415 51.6258 60.415Z" fill="#34C2FF"/>
<path d="M51.6258 60.415C56.4528 60.415 60.3658 56.4993 60.3658 51.6689C60.3658 46.8386 56.4528 42.9229 51.6258 42.9229C46.7988 42.9229 42.8857 46.8386 42.8857 51.6689C42.8857 56.4993 46.7988 60.415 51.6258 60.415Z" fill="url(#paint3_linear_936_12124)"/>
<path d="M57.7385 69.9113C57.0984 69.9555 56.4363 69.7126 55.9287 69.2267C55.0238 68.3211 55.0238 66.8414 55.9287 65.9138L65.8605 55.975C66.7654 55.0695 68.2442 55.0695 69.1712 55.975C70.0761 56.8806 70.0761 58.3603 69.1712 59.288L59.2393 69.2267C58.82 69.6463 58.2902 69.8672 57.7385 69.9113Z" fill="#34C2FF"/>
<defs>
<linearGradient id="paint0_linear_936_12124" x1="39.6783" y1="75.8932" x2="75.8477" y2="39.7487" gradientUnits="userSpaceOnUse">
<stop stop-color="#9CE1FF"/>
<stop offset="1" stop-color="#B0F2DE"/>
</linearGradient>
<linearGradient id="paint1_linear_936_12124" x1="41.6059" y1="44.4877" x2="37.8711" y2="29.106" gradientUnits="userSpaceOnUse">
<stop stop-color="#FFF395"/>
<stop offset="0.83" stop-color="#B0F2DE"/>
</linearGradient>
<linearGradient id="paint2_linear_936_12124" x1="18.0577" y1="28.0735" x2="28.0684" y2="18.0698" gradientUnits="userSpaceOnUse">
<stop stop-color="#9CE1FF"/>
<stop offset="1" stop-color="#B0F2DE"/>
</linearGradient>
<linearGradient id="paint3_linear_936_12124" x1="67.4893" y1="52.1294" x2="40.7673" y2="49.9917" gradientUnits="userSpaceOnUse">
<stop stop-color="white"/>
<stop offset="1" stop-color="#34C2FF" stop-opacity="0"/>
</linearGradient>
</defs>
</svg>
