<svg width="100" height="100" viewBox="0 0 100 100" fill="none" xmlns="http://www.w3.org/2000/svg">
<path d="M24.3219 50.2001C28.2881 50.0928 31.3967 46.789 31.2681 42.8201C31.1609 38.8511 27.8593 35.7404 23.8932 35.8691C19.927 35.9764 16.8183 39.2802 16.9255 43.2491C17.0327 47.2181 20.3343 50.3288 24.3005 50.2001H24.3219Z" fill="#6AE7C1"/>
<path d="M39.9936 35.8691C43.9598 35.8691 47.1541 32.6511 47.1541 28.7036C47.1541 24.7561 43.9383 21.5381 39.9936 21.5381C36.0488 21.5381 32.833 24.7561 32.833 28.7036C32.833 32.6511 36.0488 35.8691 39.9936 35.8691Z" fill="#6AE7C1"/>
<path d="M61.0043 35.8691C64.9705 35.8691 68.1649 32.6511 68.1649 28.7036C68.1649 24.7561 64.9491 21.5381 61.0043 21.5381C57.0596 21.5381 53.8438 24.7561 53.8438 28.7036C53.8438 32.6511 57.0596 35.8691 61.0043 35.8691Z" fill="#6AE7C1"/>
<path d="M84.0502 43.5706C84.3289 39.6231 81.3489 36.1905 77.4041 35.9116C73.4594 35.6327 70.0292 38.6148 69.7505 42.5622C69.4718 46.5097 72.4518 49.9423 76.3965 50.2212C80.3413 50.5001 83.7715 47.518 84.0502 43.5706Z" fill="#6AE7C1"/>
<path fill-rule="evenodd" clip-rule="evenodd" d="M72.7729 62.4291C72.7729 74.7006 62.8467 77.9186 50.5837 77.9186C38.3207 77.9186 28.3945 74.7006 28.3945 62.4291C28.3945 50.1576 38.3207 40.2246 50.5837 40.2246C62.8467 40.2246 72.7729 50.1576 72.7729 62.4291Z" fill="url(#paint0_linear_936_12221)"/>
<defs>
<linearGradient id="paint0_linear_936_12221" x1="27.8789" y1="46.651" x2="72.5247" y2="81.4331" gradientUnits="userSpaceOnUse">
<stop stop-color="#FFF395"/>
<stop offset="0.83" stop-color="#B0F2DE"/>
</linearGradient>
</defs>
</svg>
