<svg width="65" height="65" viewBox="0 0 65 65" fill="none" xmlns="http://www.w3.org/2000/svg">
<circle cx="32" cy="33" r="26" fill="#FAFAFB"/>
<path fill-rule="evenodd" clip-rule="evenodd" d="M38.5886 29.7916C38.0639 32.075 36.4917 33.0804 35.3418 33.8172C34.1517 34.5777 33.7404 34.8958 33.7404 35.9725C33.7404 36.4089 33.567 36.8274 33.2585 37.1359C32.9499 37.4445 32.5314 37.6178 32.0951 37.6178C31.6587 37.6178 31.2402 37.4445 30.9317 37.1359C30.6231 36.8274 30.4498 36.4089 30.4498 35.9725C30.4498 33.0384 32.2523 31.8867 33.5685 31.0439C34.6142 30.3766 35.1681 29.9836 35.382 29.0549C35.5667 28.2487 35.4204 27.5357 34.9433 26.9361C34.3181 26.1518 33.2011 25.6436 32.0951 25.6436C30.3072 25.6436 28.852 27.1006 28.852 28.8885C28.852 29.3249 28.6786 29.7434 28.3701 30.052C28.0615 30.3605 27.643 30.5339 27.2067 30.5339C26.7703 30.5339 26.3518 30.3605 26.0432 30.052C25.7347 29.7434 25.5613 29.3249 25.5613 28.8885C25.5633 27.1563 26.2523 25.4955 27.4772 24.2706C28.7021 23.0458 30.3628 22.3568 32.0951 22.3548C34.1956 22.3548 36.2723 23.3237 37.5173 24.8868C38.6178 26.2688 38.9981 28.011 38.5886 29.7916ZM32.1243 43.9395C31.5425 43.9395 30.9845 43.7084 30.5731 43.297C30.1617 42.8856 29.9306 42.3276 29.9306 41.7458C29.9306 41.1639 30.1617 40.6059 30.5731 40.1945C30.9845 39.7831 31.5425 39.552 32.1243 39.552C32.7061 39.552 33.2641 39.7831 33.6755 40.1945C34.0869 40.6059 34.3181 41.1639 34.3181 41.7458C34.3181 42.3276 34.0869 42.8856 33.6755 43.297C33.2641 43.7084 32.7061 43.9395 32.1243 43.9395ZM32 12.8906C20.8923 12.8906 11.8906 21.8941 11.8906 33C11.8906 44.1077 20.8923 53.1094 32 53.1094C43.1059 53.1094 52.1094 44.1077 52.1094 33C52.1094 21.8941 43.1059 12.8906 32 12.8906Z" fill="#E1E4E8"/>
</svg>
