<svg width="28" height="28" viewBox="0 0 28 28" fill="none" xmlns="http://www.w3.org/2000/svg">
<path d="M25.3969 5.65469V10.9047C25.3969 11.1368 25.3047 11.3593 25.1406 11.5234C24.9765 11.6875 24.754 11.7797 24.5219 11.7797H19.2719C19.0997 11.7794 18.9314 11.7283 18.7881 11.6328C18.6448 11.5374 18.5329 11.4017 18.4663 11.2429C18.3998 11.0841 18.3816 10.9092 18.414 10.7401C18.4464 10.571 18.5279 10.4152 18.6485 10.2922L20.661 8.27969L20.1906 7.80938C18.9666 6.58664 17.4074 5.75425 15.7104 5.41742C14.0133 5.08059 12.2545 5.25444 10.6562 5.91699C9.05789 6.57954 7.6919 7.70106 6.73087 9.13978C5.76984 10.5785 5.25691 12.2698 5.25691 14C5.25691 15.7302 5.76984 17.4215 6.73087 18.8602C7.6919 20.299 9.05789 21.4205 10.6562 22.083C12.2545 22.7456 14.0133 22.9194 15.7104 22.5826C17.4074 22.2458 18.9666 21.4134 20.1906 20.1906C20.2711 20.1083 20.3672 20.0428 20.4734 19.9982C20.5795 19.9535 20.6935 19.9305 20.8086 19.9305C20.9238 19.9305 21.0377 19.9535 21.1439 19.9982C21.25 20.0428 21.3461 20.1083 21.4266 20.1906C21.5902 20.3547 21.6821 20.5769 21.6821 20.8086C21.6821 21.0403 21.5902 21.2625 21.4266 21.4266C19.9579 22.8945 18.087 23.894 16.0503 24.2987C14.0137 24.7034 11.9028 24.4951 9.98446 23.7002C8.06616 22.9053 6.42661 21.5595 5.27309 19.8329C4.11958 18.1063 3.50391 16.0765 3.50391 14C3.50391 11.9235 4.11958 9.89369 5.27309 8.16709C6.42661 6.44049 8.06616 5.09468 9.98446 4.2998C11.9028 3.50491 14.0137 3.29666 16.0503 3.70136C18.087 4.10606 19.9579 5.10554 21.4266 6.57344L21.8969 7.04375L23.8985 5.04219C24.0199 4.91901 24.175 4.83456 24.3444 4.79952C24.5138 4.76448 24.6897 4.78042 24.85 4.84532C25.0096 4.91294 25.1463 5.02538 25.2433 5.16902C25.3404 5.31267 25.3937 5.48136 25.3969 5.65469Z" fill="#787B80"/>
</svg>
