<svg width="100" height="100" viewBox="0 0 100 100" fill="none" xmlns="http://www.w3.org/2000/svg">
<path d="M70.5926 21.9547C68.4428 19.0588 65.094 17.2385 61.4973 16.9902C58.1899 16.7834 53.6629 16.9902 48.7432 18.5003L76.2358 33.4765C74.8508 28.512 72.5563 24.6025 70.5926 21.9341V21.9547Z" fill="#FFBDE0"/>
<path d="M26.914 37.6753C23.4206 44.0878 21.9116 49.9624 21.6016 55.1958L60.1946 76.2122C64.4115 73.1094 68.5251 68.6413 72.0185 62.2289C75.5119 55.8164 77.0623 49.9004 77.393 44.6876L38.7173 23.6299C34.521 26.7534 30.4281 31.2214 26.914 37.6753Z" fill="#FFBDE0"/>
<path d="M28.2985 77.8264C30.469 80.8258 33.8797 82.6874 37.5798 82.8736C40.8666 83.0391 45.3108 82.8116 50.1272 81.3222L22.7793 66.4287C24.1436 71.2898 26.3554 75.158 28.2985 77.8264Z" fill="#FFBDE0"/>
<path d="M48.7433 18.501C45.4979 19.5146 42.0665 21.128 38.7178 23.631L77.3728 44.6887C77.6416 40.5103 77.1454 36.7662 76.2359 33.4772L48.7433 18.501Z" fill="#FFBDE0"/>
<path d="M48.7433 18.501C45.4979 19.5146 42.0665 21.128 38.7178 23.631L77.3728 44.6887C77.6416 40.5103 77.1454 36.7662 76.2359 33.4772L48.7433 18.501Z" fill="url(#paint0_linear_936_12156)"/>
<path d="M22.7799 66.4285L50.1278 81.322C53.3938 80.3084 56.8253 78.6949 60.1947 76.2127L21.6016 55.1963C21.3536 59.3747 21.8497 63.1188 22.7799 66.4285Z" fill="#FFBDE0"/>
<path d="M22.7799 66.4285L50.1278 81.322C53.3938 80.3084 56.8253 78.6949 60.1947 76.2127L21.6016 55.1963C21.3536 59.3747 21.8497 63.1188 22.7799 66.4285Z" fill="url(#paint1_linear_936_12156)"/>
<path d="M46.1782 33.4305L45.2522 32.9264C41.9529 31.13 37.8231 32.3503 36.028 35.6518L30.1894 46.3903C28.3943 49.6918 29.6137 53.8245 32.9129 55.6208L33.839 56.125C37.1382 57.9213 41.268 56.7011 43.0631 53.3995L48.9017 42.661C50.6968 39.3595 49.4774 35.2269 46.1782 33.4305Z" fill="#FFE2F2"/>
<path d="M43.3647 37.7384L43.2012 37.6495C42.7099 37.3819 42.0948 37.5637 41.8274 38.0554L35.3466 49.9749C35.0793 50.4667 35.2609 51.0822 35.7523 51.3497L35.9157 51.4387C36.4071 51.7062 37.0221 51.5245 37.2895 51.0328L43.7703 39.1132C44.0376 38.6215 43.856 38.006 43.3647 37.7384Z" fill="#FF6EBC"/>
<path d="M45.161 42.4357L45.2005 42.363C45.4678 41.8713 45.2862 41.2558 44.7949 40.9882L39.6744 38.2004C39.183 37.9328 38.568 38.1146 38.3006 38.6063L38.2611 38.679C37.9938 39.1707 38.1754 39.7862 38.6667 40.0537L43.7872 42.8416C44.2785 43.1091 44.8936 42.9274 45.161 42.4357Z" fill="#FF6EBC"/>
<path d="M42.995 46.4513L43.0345 46.3786C43.3018 45.8869 43.1202 45.2714 42.6288 45.0039L37.5084 42.216C37.017 41.9484 36.402 42.1302 36.1346 42.6219L36.0951 42.6946C35.8277 43.1863 36.0093 43.8018 36.5007 44.0693L41.6211 46.8572C42.1125 47.1247 42.7276 46.943 42.995 46.4513Z" fill="#FF6EBC"/>
<path d="M40.7909 50.4786L40.8304 50.406C41.0977 49.9142 40.9161 49.2987 40.4247 49.0312L35.3043 46.2433C34.8129 45.9758 34.1979 46.1575 33.9305 46.6492L33.891 46.7219C33.6236 47.2136 33.8052 47.8291 34.2966 48.0967L39.417 50.8846C39.9084 51.1521 40.5235 50.9704 40.7909 50.4786Z" fill="#FF6EBC"/>
<defs>
<linearGradient id="paint0_linear_936_12156" x1="40.9306" y1="19.5456" x2="79.6183" y2="40.5805" gradientUnits="userSpaceOnUse">
<stop stop-color="#FFE751"/>
<stop offset="1" stop-color="#F4DAFF"/>
</linearGradient>
<linearGradient id="paint1_linear_936_12156" x1="19.3704" y1="59.2845" x2="57.9673" y2="80.2701" gradientUnits="userSpaceOnUse">
<stop stop-color="#FFE751"/>
<stop offset="1" stop-color="#F4DAFF"/>
</linearGradient>
</defs>
</svg>
