<svg width="100" height="100" viewBox="0 0 100 100" fill="none" xmlns="http://www.w3.org/2000/svg">
<path d="M40.2796 68.1362L38.3955 68.9697L42.0106 77.1525L43.8947 76.3189L40.2796 68.1362Z" fill="#FF6EBC"/>
<path d="M58.3128 68.1555L54.6992 76.3389L56.5835 77.1721L60.1971 68.9887L58.3128 68.1555Z" fill="#FF6EBC"/>
<path d="M50.3091 68.6738H48.249V76.631H50.3091V68.6738Z" fill="#FF6EBC"/>
<path d="M39.6388 77.124H60.0331L58.9207 85.8028C58.8383 86.4624 58.1585 86.9572 57.3345 86.9572H42.3168C41.4928 86.9572 40.813 86.4624 40.7306 85.8028L39.6182 77.124H39.6388Z" fill="#FFBDE0"/>
<path d="M58.5502 75.29H41.1429C40.0166 75.29 39.1035 76.2038 39.1035 77.3309V77.4752C39.1035 78.6023 40.0166 79.516 41.1429 79.516H58.5502C59.6766 79.516 60.5897 78.6023 60.5897 77.4752V77.3309C60.5897 76.2038 59.6766 75.29 58.5502 75.29Z" fill="url(#paint0_linear_936_12184)"/>
<path d="M33.6238 44.9863C33.6238 32.6794 39.9481 21.8155 49.5684 15.3838C49.486 15.3838 49.383 15.3838 49.3006 15.3838C48.6208 15.3838 47.941 15.425 47.2612 15.4869C31.1311 16.6825 18.4619 28.9894 18.4619 44.0174C18.4619 59.0454 30.8633 71.0431 46.7462 72.4861C38.7326 65.9307 33.6444 56.0563 33.6444 44.9863H33.6238Z" fill="url(#paint1_linear_936_12184)"/>
<path d="M66.0491 44.9863C66.0491 56.0357 60.9402 65.9307 52.9472 72.4861C68.8095 71.0637 81.2315 58.8805 81.2315 44.0174C81.2315 29.1543 68.5623 16.6825 52.4322 15.4869C51.7524 15.4456 51.0726 15.4044 50.3928 15.3838C50.3104 15.3838 50.2074 15.3838 50.125 15.3838C59.7454 21.8155 66.0697 32.6588 66.0697 44.9863H66.0491Z" fill="url(#paint2_linear_936_12184)"/>
<path d="M49.5687 15.3838C39.9483 21.8155 33.624 32.6588 33.624 44.9863C33.624 56.0357 38.7329 65.9307 46.7258 72.4861C46.9112 72.4861 47.076 72.5273 47.2614 72.548C47.9413 72.5892 48.6211 72.6304 49.3009 72.651C49.4863 72.651 49.6511 72.6717 49.8365 72.6717C50.0219 72.6717 50.2073 72.651 50.3721 72.651C51.0519 72.651 51.7317 72.6098 52.4115 72.548C52.5969 72.548 52.7617 72.5067 52.9471 72.4861C60.9607 65.9307 66.049 56.0563 66.049 44.9863C66.049 32.6794 59.7247 21.8155 50.1043 15.3838C50.0219 15.3838 49.9189 15.3838 49.8159 15.3838C49.7129 15.3838 49.6305 15.3838 49.5481 15.3838H49.5687Z" fill="url(#paint3_linear_936_12184)"/>
<defs>
<linearGradient id="paint0_linear_936_12184" x1="39.1035" y1="77.3927" x2="60.5897" y2="77.3927" gradientUnits="userSpaceOnUse">
<stop offset="0.12" stop-color="#FFF393"/>
<stop offset="0.67" stop-color="#F4DA85"/>
</linearGradient>
<linearGradient id="paint1_linear_936_12184" x1="18.4619" y1="43.935" x2="49.5684" y2="43.935" gradientUnits="userSpaceOnUse">
<stop stop-color="#FF96E0"/>
<stop offset="1" stop-color="#FFBDE0"/>
</linearGradient>
<linearGradient id="paint2_linear_936_12184" x1="50.125" y1="43.935" x2="81.2315" y2="43.935" gradientUnits="userSpaceOnUse">
<stop stop-color="#FF96E0"/>
<stop offset="1" stop-color="#F4DAFF"/>
</linearGradient>
<linearGradient id="paint3_linear_936_12184" x1="31.4198" y1="24.3924" x2="57.2312" y2="53.1938" gradientUnits="userSpaceOnUse">
<stop stop-color="#FFE751"/>
<stop offset="1" stop-color="#F4DAFF"/>
</linearGradient>
</defs>
</svg>
