<svg width="100" height="100" viewBox="0 0 100 100" fill="none" xmlns="http://www.w3.org/2000/svg">
<path d="M78.234 35.7005H20.6807V62.4981C20.6807 62.8345 20.8191 63.1908 21.1751 63.4085L33.8131 71.1469L49.1014 80.5083C49.2794 80.6072 49.4771 80.6666 49.6749 80.6666C49.8727 80.6666 50.0902 80.6072 50.2682 80.4885L65.1016 71.2459L77.7396 63.3689C78.0758 63.1512 78.234 62.8147 78.2143 62.4783V35.6807L78.234 35.7005Z" fill="url(#paint0_linear_936_12213)"/>
<path d="M87.51 40.6085L50.5651 18.6598C50.3278 18.5213 50.0707 18.4619 49.8136 18.4619C49.5564 18.4619 49.2993 18.5213 49.062 18.6598L11.4644 40.6085C10.5546 41.1429 10.5348 42.4294 11.4248 42.9835L28.4535 53.5917L49.0422 66.4166C49.2796 66.5551 49.5564 66.6343 49.8136 66.6343C50.0707 66.6343 50.3673 66.5551 50.6047 66.3968L70.5605 53.7501L87.5496 42.9835C88.4396 42.4294 88.4198 41.1429 87.51 40.6085Z" fill="url(#paint1_linear_936_12213)"/>
<path d="M71.9845 69.9597V52.7411L49.9916 39.3027L48.9434 41.0048L69.9671 53.8494V69.9399C68.642 70.3555 67.6729 71.5826 67.6729 73.0471V81.0033C67.6729 81.221 67.8509 81.3793 68.0487 81.3793H73.8634C74.0809 81.3793 74.2392 81.2012 74.2392 81.0033V73.0471C74.2392 71.5826 73.27 70.3555 71.9449 69.9399L71.9845 69.9597Z" fill="#34C2FF"/>
<path d="M49.4772 42.8843C51.2795 42.8843 52.7405 41.6615 52.7405 40.1531C52.7405 38.6447 51.2795 37.4219 49.4772 37.4219C47.6749 37.4219 46.2139 38.6447 46.2139 40.1531C46.2139 41.6615 47.6749 42.8843 49.4772 42.8843Z" fill="#34C2FF"/>
<defs>
<linearGradient id="paint0_linear_936_12213" x1="20.7004" y1="58.1835" x2="78.234" y2="58.1835" gradientUnits="userSpaceOnUse">
<stop stop-color="#34C2FF"/>
<stop offset="1" stop-color="#B0F2DE"/>
</linearGradient>
<linearGradient id="paint1_linear_936_12213" x1="10.7524" y1="42.5481" x2="88.1825" y2="42.5481" gradientUnits="userSpaceOnUse">
<stop stop-color="#FFF395"/>
<stop offset="0.83" stop-color="#B0F2DE"/>
</linearGradient>
</defs>
</svg>
