<svg width="14" height="15" viewBox="0 0 14 15" fill="none" xmlns="http://www.w3.org/2000/svg">
<path fill-rule="evenodd" clip-rule="evenodd" d="M4.37484 7.29395C4.6621 7.29395 4.94656 7.23736 5.21196 7.12743C5.47736 7.0175 5.71851 6.85637 5.92163 6.65324C6.12476 6.45011 6.28589 6.20897 6.39582 5.94357C6.50576 5.67817 6.56234 5.39371 6.56234 5.10645C6.56234 4.81918 6.50576 4.53473 6.39582 4.26933C6.28589 4.00393 6.12476 3.76278 5.92163 3.55965C5.71851 3.35652 5.47736 3.19539 5.21196 3.08546C4.94656 2.97553 4.6621 2.91895 4.37484 2.91895C3.79468 2.91895 3.23828 3.14941 2.82804 3.55965C2.41781 3.96989 2.18734 4.52628 2.18734 5.10645C2.18734 5.68661 2.41781 6.24301 2.82804 6.65324C3.23828 7.06348 3.79468 7.29395 4.37484 7.29395ZM4.6665 10.8995C4.6665 10.1622 5.11625 9.07078 6.11317 8.2442C5.62142 8.07095 5.04684 7.96245 4.37484 7.96245C1.43484 7.96245 0.291504 9.96795 0.291504 10.8995C0.291504 11.8329 2.72575 12.0802 4.37484 12.0802C4.64959 12.0802 4.9465 12.0726 5.25042 12.0569C4.86484 11.7494 4.6665 11.3644 4.6665 10.8995Z" fill="#8B95A1" fill-opacity="0.72"/>
<path fill-rule="evenodd" clip-rule="evenodd" d="M9.62484 7.96303C6.68484 7.96303 5.5415 9.96795 5.5415 10.9001C5.5415 11.8323 7.97575 12.0808 9.62484 12.0808C11.2739 12.0808 13.7082 11.8323 13.7082 10.9001C13.7082 9.96795 12.5648 7.96303 9.62484 7.96303ZM9.62484 7.29395C9.9121 7.29395 10.1966 7.23736 10.462 7.12743C10.7274 7.0175 10.9685 6.85637 11.1716 6.65324C11.3748 6.45011 11.5359 6.20896 11.6458 5.94357C11.7558 5.67817 11.8123 5.39371 11.8123 5.10645C11.8123 4.81918 11.7558 4.53472 11.6458 4.26933C11.5359 4.00393 11.3748 3.76278 11.1716 3.55965C10.9685 3.35652 10.7274 3.19539 10.462 3.08546C10.1966 2.97553 9.9121 2.91895 9.62484 2.91895C9.04468 2.91895 8.48828 3.14941 8.07804 3.55965C7.66781 3.96988 7.43734 4.52628 7.43734 5.10645C7.43734 5.68661 7.66781 6.24301 8.07804 6.65324C8.48828 7.06348 9.04468 7.29395 9.62484 7.29395Z" fill="#8B95A1"/>
</svg>
